<svg xmlns="http://www.w3.org/2000/svg" xmlns:xlink="http://www.w3.org/1999/xlink" width="53" height="49" viewBox="0 0 53 49"><defs><path id="vhrga" d="M63.636 24.999l-1.939 5.88h-9.76c-2.265 0-4.263 1.496-4.922 3.687l-9.13 28.088c-.69 2.223.952 5.465 3.257 5.465h26.372l9.695-27.44h6.787L74.3 68.118h6.786l-1.939 5.88H37.414c-.798 0-1.58-.187-2.288-.56-2.08-1.1-5.595-5.062-3.483-12.18 3.878-11.76 10.665-31.36 10.665-31.36s1.939-4.9 5.817-4.9h15.511zm-.969 23.52c3.878 1.47 4.363 4.41 4.246 7.232-.164 3.685-2.307 6.488-7.038 6.488H44.799l1.474-4.9h13.854c1.823 0 2.996-2.146 1.861-3.596a4.167 4.167 0 0 0-.29-.323c-1.94-1.961-9.695-2.941-9.695-2.941l.969-2.94s14.542-3.92 13.573-6.86h-15.26l1.474-4.9h19.603s.97 10.78-9.695 12.74z"/></defs><g><g transform="translate(-31 -25)"><use fill="#ffdd2d" xlink:href="#vhrga"/></g></g></svg>